<?xml version="1.0" standalone="no"?>
<!DOCTYPE svg PUBLIC "-//W3C//DTD SVG 20010904//EN"
 "http://www.w3.org/TR/2001/REC-SVG-20010904/DTD/svg10.dtd">
<svg version="1.0" xmlns="http://www.w3.org/2000/svg"
 width="100.000000pt" height="100.000000pt" viewBox="0 0 100.000000 100.000000"
 preserveAspectRatio="xMidYMid meet">

<g transform="translate(0.000000,100.000000) scale(0.100000,-0.100000)"
fill="#000000" stroke="none">
<path d="M381 944 c-76 -20 -144 -60 -202 -116 -45 -45 -64 -88 -39 -88 6 0
34 24 63 53 162 165 429 167 593 3 162 -163 162 -429 0 -592 -164 -164 -431
-162 -593 3 -29 29 -57 53 -63 53 -25 0 -6 -42 41 -88 264 -259 709 -112 771
256 39 231 -114 463 -343 517 -79 18 -157 18 -228 -1z"/>
<path d="M125 590 l-90 -90 92 -92 c73 -73 95 -90 105 -80 10 10 -2 27 -57 82
l-69 70 224 2 c192 3 225 5 225 18 0 13 -33 15 -225 18 l-224 2 68 69 c59 60
76 91 48 91 -4 0 -48 -41 -97 -90z"/>
</g>
</svg>
