<?xml version="1.0" standalone="no"?>
<!DOCTYPE svg PUBLIC "-//W3C//DTD SVG 20010904//EN"
 "http://www.w3.org/TR/2001/REC-SVG-20010904/DTD/svg10.dtd">
<svg version="1.0" xmlns="http://www.w3.org/2000/svg"
 width="100.000000pt" height="100.000000pt" viewBox="0 0 100.000000 100.000000"
 preserveAspectRatio="xMidYMid meet">

<g transform="translate(0.000000,100.000000) scale(0.100000,-0.100000)"
fill="#000000" stroke="none">
<path d="M385 866 c-256 -62 -378 -304 -253 -500 29 -44 109 -118 140 -129 10
-3 7 -16 -10 -52 -35 -72 -18 -79 71 -32 40 20 79 37 88 37 8 0 42 -15 75 -32
51 -28 70 -33 135 -34 42 -1 93 -7 114 -14 43 -14 63 -3 47 26 -8 15 -2 25 33
56 51 45 80 110 72 165 -3 21 2 62 10 92 72 258 -219 491 -522 417z m230 -42
c174 -45 288 -193 261 -339 l-7 -36 -44 40 c-110 101 -309 89 -404 -26 -46
-56 -54 -119 -26 -211 5 -14 3 -22 -5 -22 -6 0 -23 -9 -37 -20 -32 -25 -47
-26 -33 -1 15 28 4 47 -45 75 -60 36 -121 108 -141 168 -77 233 198 446 481
372z m149 -338 c49 -29 84 -78 93 -130 7 -45 -27 -118 -70 -148 -18 -12 -35
-26 -39 -32 -10 -14 -134 -18 -181 -5 -156 41 -198 209 -75 302 46 35 92 47
165 43 44 -3 75 -11 107 -30z"/>
<path d="M506 364 c-19 -19 -20 -25 -3 -49 20 -26 67 -13 67 18 0 43 -35 60
-64 31z"/>
<path d="M623 372 c-11 -7 -16 -26 -14 -49 1 -15 33 -25 55 -17 21 8 21 60 0
68 -20 8 -26 7 -41 -2z"/>
<path d="M732 368 c-18 -18 -15 -56 7 -63 22 -7 51 3 52 19 5 47 -30 73 -59
44z"/>
</g>
</svg>
