<?xml version="1.0" standalone="no"?>
<!DOCTYPE svg PUBLIC "-//W3C//DTD SVG 20010904//EN"
 "http://www.w3.org/TR/2001/REC-SVG-20010904/DTD/svg10.dtd">
<svg version="1.0" xmlns="http://www.w3.org/2000/svg"
 width="120.000000pt" height="120.000000pt" viewBox="0 0 120.000000 120.000000"
 preserveAspectRatio="xMidYMid meet">

<g transform="translate(0.000000,120.000000) scale(0.100000,-0.100000)"
fill="#000000" stroke="none">
<path d="M572 1108 c-7 -7 -12 -22 -12 -35 0 -46 -79 -59 -106 -17 -12 18 -24
24 -43 22 -23 -3 -26 -8 -29 -50 -2 -37 -8 -50 -29 -64 -25 -16 -28 -16 -59 1
-35 19 -61 15 -71 -10 -3 -9 2 -31 12 -49 17 -31 17 -34 1 -59 -14 -21 -27
-27 -64 -29 -42 -3 -47 -6 -50 -29 -2 -19 4 -31 22 -43 45 -29 29 -101 -23
-108 -53 -7 -53 -69 0 -76 52 -7 68 -79 23 -108 -18 -12 -24 -24 -22 -43 3
-23 8 -26 50 -29 37 -2 50 -8 64 -29 16 -25 16 -28 -1 -59 -31 -57 2 -90 59
-59 31 17 34 17 59 1 21 -14 27 -27 29 -64 3 -43 6 -47 30 -50 20 -2 31 4 44
22 29 45 99 29 106 -23 7 -53 69 -53 76 0 7 52 79 68 108 23 12 -18 24 -24 43
-22 23 3 26 8 29 50 2 37 8 50 29 64 25 16 28 16 59 -1 57 -31 90 2 59 59 -17
31 -17 34 -1 59 14 21 27 27 64 29 43 3 47 6 50 30 2 20 -4 31 -22 44 -45 29
-29 99 23 106 53 7 53 69 0 76 -52 7 -68 79 -23 108 18 12 24 24 22 43 -3 23
-8 26 -50 29 -37 2 -50 8 -64 29 -16 25 -16 28 1 59 31 57 -2 90 -59 59 -31
-17 -34 -17 -59 -1 -21 14 -27 27 -29 64 -3 42 -6 47 -29 50 -19 2 -31 -4 -43
-22 -27 -42 -106 -29 -106 17 0 27 -17 47 -40 47 -9 0 -21 -5 -28 -12z m126
-204 c99 -32 190 -130 212 -229 l8 -35 -123 0 c-80 0 -126 4 -131 11 -3 6 -21
17 -38 24 -24 10 -45 37 -90 115 -32 55 -56 104 -53 107 25 24 149 28 215 7z
m-227 -159 c73 -126 73 -157 1 -285 -29 -52 -57 -99 -61 -103 -14 -14 -57 31
-92 95 -31 58 -34 70 -33 148 0 68 5 94 24 133 28 59 87 124 99 111 5 -5 33
-49 62 -99z m439 -219 c-11 -49 -60 -134 -93 -162 -75 -63 -167 -91 -259 -80
-88 11 -88 11 -22 126 45 78 66 105 90 115 17 7 35 18 38 24 5 7 51 11 131 11
l123 0 -8 -34z"/>
</g>
</svg>
